<svg width="22" height="22" viewBox="0 0 22 22" fill="none" xmlns="http://www.w3.org/2000/svg">
<path d="M7.15868 19.7166C7.15868 19.912 7.00232 20.0704 6.80947 20.0704C6.61662 20.0704 6.46026 19.912 6.46026 19.7166V13.3482C6.46026 13.1528 6.61662 12.9944 6.80947 12.9944C7.00232 12.9944 7.15868 13.1528 7.15868 13.3482V19.7166Z" fill="#888888"/>
<path d="M4.36503 19.7166C4.36503 19.912 4.20867 20.0704 4.01582 20.0704C3.82297 20.0704 3.66661 19.912 3.66661 19.7166V13.3482C3.66661 13.1528 3.82297 12.9944 4.01582 12.9944C4.20867 12.9944 4.36503 13.1528 4.36503 13.3482V19.7166Z" fill="#888888"/>
<path fill-rule="evenodd" clip-rule="evenodd" d="M20.198 12.2868L11.7427 5.69722C12.2152 5.39749 12.466 4.84157 12.3804 4.2834C12.2948 3.7254 11.8892 3.27261 11.3492 3.13251V2.02653H12.3968V0.611328H9.60312V2.02653H10.6507V3.44174C10.6507 3.63712 10.8071 3.79554 10.9999 3.79554C11.3856 3.79554 11.6984 4.11237 11.6984 4.50314C11.6984 4.89391 11.3856 5.21074 10.9999 5.21074C10.6143 5.21074 10.3015 4.89391 10.3015 4.50314C10.3015 4.30776 10.1452 4.14934 9.95233 4.14934C9.75948 4.14934 9.60312 4.30776 9.60312 4.50314C9.60431 4.98858 9.85121 5.43947 10.2572 5.69722L1.80191 12.2868H1.22217V20.778H20.7777V12.2868H20.198ZM19.0527 12.2868L10.9999 6.01111L2.94723 12.2868H19.0527ZM4.01582 20.0704C4.20867 20.0704 4.36503 19.912 4.36503 19.7166V13.3482C4.36503 13.1528 4.20867 12.9944 4.01582 12.9944C3.82297 12.9944 3.66661 13.1528 3.66661 13.3482V19.7166C3.66661 19.912 3.82297 20.0704 4.01582 20.0704ZM6.80947 20.0704C7.00232 20.0704 7.15868 19.912 7.15868 19.7166V13.3482C7.15868 13.1528 7.00232 12.9944 6.80947 12.9944C6.61662 12.9944 6.46026 13.1528 6.46026 13.3482V19.7166C6.46026 19.912 6.61662 20.0704 6.80947 20.0704ZM9.60312 20.0704C9.79597 20.0704 9.95233 19.912 9.95233 19.7166V13.3482C9.95233 13.1528 9.79597 12.9944 9.60312 12.9944C9.41027 12.9944 9.25391 13.1528 9.25391 13.3482V19.7166C9.25391 19.912 9.41027 20.0704 9.60312 20.0704ZM12.3968 20.0704C12.5896 20.0704 12.746 19.912 12.746 19.7166V13.3482C12.746 13.1528 12.5896 12.9944 12.3968 12.9944C12.2039 12.9944 12.0476 13.1528 12.0476 13.3482V19.7166C12.0476 19.912 12.2039 20.0704 12.3968 20.0704ZM15.1904 20.0704C15.3833 20.0704 15.5396 19.912 15.5396 19.7166V13.3482C15.5396 13.1528 15.3833 12.9944 15.1904 12.9944C14.9976 12.9944 14.8412 13.1528 14.8412 13.3482V19.7166C14.8412 19.912 14.9976 20.0704 15.1904 20.0704ZM17.9841 20.0704C18.1769 20.0704 18.3333 19.912 18.3333 19.7166V13.3482C18.3333 13.1528 18.1769 12.9944 17.9841 12.9944C17.7912 12.9944 17.6349 13.1528 17.6349 13.3482V19.7166C17.6349 19.912 17.7912 20.0704 17.9841 20.0704Z" fill="#323232"/>
<path d="M9.95233 19.7166C9.95233 19.912 9.79597 20.0704 9.60312 20.0704C9.41027 20.0704 9.25391 19.912 9.25391 19.7166V13.3482C9.25391 13.1528 9.41027 12.9944 9.60312 12.9944C9.79597 12.9944 9.95233 13.1528 9.95233 13.3482V19.7166Z" fill="#888888"/>
<path d="M12.746 19.7166C12.746 19.912 12.5896 20.0704 12.3968 20.0704C12.2039 20.0704 12.0476 19.912 12.0476 19.7166V13.3482C12.0476 13.1528 12.2039 12.9944 12.3968 12.9944C12.5896 12.9944 12.746 13.1528 12.746 13.3482V19.7166Z" fill="#888888"/>
<path d="M15.5396 19.7166C15.5396 19.912 15.3833 20.0704 15.1904 20.0704C14.9976 20.0704 14.8412 19.912 14.8412 19.7166V13.3482C14.8412 13.1528 14.9976 12.9944 15.1904 12.9944C15.3833 12.9944 15.5396 13.1528 15.5396 13.3482V19.7166Z" fill="#888888"/>
<path d="M18.3333 19.7166C18.3333 19.912 18.1769 20.0704 17.9841 20.0704C17.7912 20.0704 17.6349 19.912 17.6349 19.7166V13.3482C17.6349 13.1528 17.7912 12.9944 17.9841 12.9944C18.1769 12.9944 18.3333 13.1528 18.3333 13.3482V19.7166Z" fill="#888888"/>
</svg>
