<svg width="22" height="22" viewBox="0 0 22 22" fill="none" xmlns="http://www.w3.org/2000/svg">
<path d="M17.8725 20.3175C17.8725 20.2648 17.8583 20.2131 17.8313 20.1678C17.8044 20.1225 17.7657 20.0854 17.7194 20.0602C16.5585 19.4362 15.4997 18.4812 15.034 18.0017C14.9648 17.9292 14.8725 17.883 14.7729 17.8712C14.6733 17.8593 14.5727 17.8826 14.4885 17.937C12.3301 19.3273 9.70207 19.3282 7.54324 17.9391C7.45824 17.8842 7.35669 17.8608 7.25625 17.8731C7.15582 17.8853 7.06284 17.9323 6.99345 18.006C6.53158 18.4897 5.48433 19.4341 4.31614 20.0538C4.26971 20.0771 4.23 20.112 4.2008 20.1549C4.1716 20.1979 4.15389 20.2477 4.14933 20.2995C4.14585 20.3436 4.15255 20.3879 4.1689 20.429C4.18525 20.47 4.21083 20.5068 4.24365 20.5364C4.27647 20.5661 4.31567 20.5878 4.35821 20.5999C4.40076 20.612 4.44548 20.6141 4.48897 20.6061C5.38312 20.4269 6.24725 20.0195 7.07065 19.5842C7.12348 19.5564 7.18219 19.5416 7.24189 19.5412C7.30158 19.5407 7.36051 19.5546 7.41373 19.5816C8.52852 20.1484 9.76142 20.4438 11.012 20.4438C12.2626 20.4438 13.4955 20.1484 14.6103 19.5816C14.6641 19.5543 14.7237 19.5403 14.7841 19.5408C14.8444 19.5412 14.9038 19.5561 14.9572 19.5842C15.7763 20.013 16.6391 20.4243 17.5303 20.6048C17.5724 20.6129 17.6158 20.6115 17.6573 20.6008C17.6988 20.59 17.7374 20.5701 17.7703 20.5425C17.8031 20.515 17.8294 20.4805 17.8473 20.4414C17.8651 20.4025 17.874 20.36 17.8734 20.3171L17.8725 20.3175Z" fill="#373737"/>
<path d="M20.4763 10.6156C20.3266 10.2558 20.0089 9.97709 19.58 9.82871L18.5589 9.42216V5.85927C18.5589 5.13134 18.2697 4.43326 17.755 3.91852C17.2403 3.4038 16.5422 3.11463 15.8143 3.11463H14.442V2.77155C14.442 2.3166 14.2612 1.88028 13.9395 1.55858C13.6178 1.23688 13.1815 1.05615 12.7266 1.05615H9.29575C8.84079 1.05615 8.40448 1.23688 8.0828 1.55858C7.76107 1.88028 7.58036 2.3166 7.58036 2.77155V3.11463H6.20804C5.48011 3.11463 4.78198 3.4038 4.26727 3.91852C3.75255 4.43326 3.46339 5.13134 3.46339 5.85927V9.42516L2.45216 9.82785C2.02588 9.96937 1.6961 10.2567 1.54514 10.6186C1.44007 10.8712 1.32 11.2619 1.48939 11.7534L1.49368 11.7662L3.49469 16.8884C3.56841 17.0766 3.69739 17.2381 3.86466 17.3515C4.03192 17.465 4.22963 17.5251 4.43174 17.524C4.45318 17.524 4.47462 17.524 4.49735 17.5218C5.84051 17.4361 6.89891 16.7812 7.6108 16.1663C8.62761 17.0441 9.82367 17.524 11.0112 17.524C12.1986 17.524 13.3883 17.0437 14.4051 16.1645C15.1165 16.7804 16.1762 17.4369 17.5189 17.5218C17.7315 17.5368 17.9433 17.4835 18.1235 17.3699C18.3037 17.2562 18.443 17.088 18.5212 16.8897L20.5218 11.7864C20.6624 11.4395 20.6461 11.0248 20.4763 10.6156ZM11.5687 6.64021L11.5198 6.62305C11.1885 6.51884 10.8333 6.51884 10.5021 6.62305L10.4772 6.63077L5.07073 8.78489C5.04469 8.79526 5.01652 8.79908 4.98864 8.79604C4.96077 8.79299 4.93409 8.78317 4.91089 8.76743C4.88769 8.75169 4.86874 8.73051 4.85561 8.70576C4.84253 8.68097 4.83567 8.6534 4.83572 8.62535V5.85927C4.83572 5.49531 4.98028 5.14627 5.23763 4.88891C5.49503 4.63152 5.84407 4.48695 6.20804 4.48695H15.8143C16.1782 4.48695 16.5273 4.63152 16.7846 4.88891C17.042 5.14627 17.1866 5.49531 17.1866 5.85927V8.62278C17.1866 8.65083 17.1798 8.6784 17.1666 8.70319C17.1536 8.72793 17.1346 8.74912 17.1114 8.76486C17.0882 8.7806 17.0615 8.79042 17.0337 8.79346C17.0058 8.79651 16.9776 8.79269 16.9516 8.78231L11.5687 6.64021Z" fill="#373737"/>
</svg>
